<?xml version="1.0" standalone="no"?>
<!DOCTYPE svg PUBLIC "-//W3C//DTD SVG 20010904//EN"
 "http://www.w3.org/TR/2001/REC-SVG-20010904/DTD/svg10.dtd">
<svg version="1.0" xmlns="http://www.w3.org/2000/svg"
 width="260.000000pt" height="260.000000pt" viewBox="0 0 260.000000 260.000000"
 preserveAspectRatio="xMidYMid meet">
<metadata>
Created by potrace 1.11, written by Peter Selinger 2001-2013
</metadata>
<g transform="translate(0.000000,260.000000) scale(0.100000,-0.100000)"
fill="#000000" stroke="none">
<path d="M537 2274 c-1 -1 -47 -4 -102 -8 -55 -3 -111 -8 -125 -10 -14 -3 -44
-7 -67 -10 -98 -13 -173 -29 -190 -41 -14 -10 -18 -27 -18 -75 0 -54 3 -64 24
-79 64 -44 80 -78 97 -201 36 -274 99 -380 254 -431 122 -39 346 -32 463 16
14 6 17 1 17 -32 0 -22 7 -64 16 -94 61 -205 272 -330 476 -283 178 42 301
176 323 354 4 30 8 56 10 58 2 2 12 -1 24 -7 75 -41 332 -50 438 -17 75 24
143 75 179 134 31 51 67 171 78 262 22 169 24 174 107 244 26 22 27 126 2 148
-16 14 -68 25 -203 44 -19 3 -48 7 -65 10 -16 3 -109 8 -206 11 -205 7 -282
-2 -479 -55 -128 -34 -143 -36 -290 -36 -146 1 -163 3 -290 36 -135 36 -172
44 -263 54 -47 5 -206 12 -210 8z m1412 -161 c1 9 6 17 11 17 12 0 13 -6 1
-29 -6 -11 -6 -23 0 -32 8 -12 10 -12 8 1 -2 22 0 33 10 49 8 13 12 13 27 0
11 -9 15 -9 10 -1 -4 6 -2 12 3 12 6 0 11 -7 11 -15 0 -8 4 -15 10 -15 5 0 7
7 4 15 -4 11 0 13 18 9 12 -2 36 -7 52 -10 40 -7 46 -12 39 -32 -5 -14 -3 -13
10 3 15 19 15 19 50 -5 24 -17 32 -27 24 -32 -8 -5 -5 -8 7 -8 11 0 16 -3 13
-7 -4 -3 -2 -12 4 -19 15 -18 14 -264 -1 -294 -4 -8 -7 -23 -8 -42 -1 -10 -10
-18 -19 -19 -11 0 -13 -3 -5 -6 18 -7 15 -16 -13 -49 -14 -16 -25 -32 -25 -36
0 -4 -7 -5 -15 -1 -10 3 -15 0 -13 -8 2 -9 -4 -13 -16 -11 -10 2 -15 -1 -12
-6 6 -10 -19 -21 -64 -28 -14 -3 -37 -9 -52 -13 -21 -8 -27 -6 -31 9 -3 11
-14 18 -32 18 -17 0 -22 -3 -14 -8 6 -5 19 -5 28 -2 14 5 14 3 2 -11 -7 -9
-18 -13 -25 -9 -6 4 -20 7 -31 7 -14 0 -19 6 -17 20 2 18 2 18 -8 3 -15 -24
-27 -23 -99 13 -60 30 -136 109 -128 133 2 5 -5 18 -15 28 -10 10 -16 23 -13
28 3 5 1 11 -4 15 -6 3 -8 12 -5 19 3 8 1 17 -5 20 -7 5 -7 13 1 26 7 10 16
16 22 13 5 -3 6 -1 2 5 -4 7 -3 12 3 12 5 0 12 -6 14 -12 4 -10 6 -10 6 0 1 7
-6 15 -14 18 -8 4 -12 10 -9 16 3 5 -3 4 -15 -4 -12 -7 -17 -14 -12 -16 12 -4
2 -32 -11 -32 -5 0 -6 4 -3 10 3 5 1 19 -6 31 -8 15 -8 19 0 15 6 -4 11 -3 11
3 0 5 -4 11 -9 13 -11 4 -21 88 -10 88 4 0 6 7 3 15 -4 8 -1 22 6 30 7 8 9 15
4 15 -4 0 7 11 26 25 31 23 50 25 50 5 0 -5 -8 -7 -17 -4 -15 5 -15 4 -3 -4
19 -15 32 -4 25 19 -6 18 -5 19 14 8 14 -10 17 -17 10 -25 -7 -8 -7 -19 -1
-31 5 -10 7 -25 5 -33 -4 -13 -3 -13 6 -1 6 10 6 21 -1 35 -8 15 -6 22 13 37
13 10 26 17 29 17 3 -1 13 2 24 7 14 6 24 2 38 -16 l20 -24 -16 28 c-25 41 -8
57 55 53 30 -2 49 2 50 8 1 6 5 0 9 -14 5 -17 8 -19 9 -7z m-1398 -3 c6 0 8 4
5 8 -3 4 49 8 114 8 66 1 117 -3 114 -8 -3 -4 12 -6 33 -3 29 3 34 2 23 -6
-12 -9 -11 -10 6 -6 12 2 46 -8 75 -23 72 -36 90 -71 84 -163 -2 -37 -7 -72
-11 -78 -7 -11 -34 7 -34 23 0 6 7 5 15 -2 9 -8 15 -8 15 -2 0 6 -6 13 -12 16
-10 5 -10 7 0 12 6 3 12 10 12 15 0 5 -9 4 -20 -3 -10 -7 -17 -14 -15 -16 2
-3 0 -13 -6 -23 -7 -14 -5 -26 6 -46 15 -26 15 -19 -2 25 -5 14 -3 14 14 -3
20 -20 19 -33 -5 -95 -3 -8 -6 -17 -7 -20 -20 -58 -31 -76 -45 -72 -6 1 -9 -2
-5 -8 7 -12 -13 -42 -24 -36 -4 3 -13 0 -21 -6 -12 -8 -12 -9 3 -4 28 9 19 -7
-18 -32 -43 -30 -60 -22 -37 18 13 22 14 32 5 41 -9 9 -11 6 -7 -12 5 -20 4
-21 -6 -9 -9 12 -10 10 -4 -10 6 -22 5 -23 -10 -11 -10 9 -16 10 -16 2 0 -6 4
-11 8 -11 4 0 8 -9 9 -20 2 -21 -39 -46 -57 -35 -5 3 -11 1 -15 -4 -8 -13 -45
-9 -45 5 0 6 10 19 23 29 21 16 21 16 -6 0 -23 -13 -31 -14 -43 -4 -12 10 -19
9 -36 -8 -15 -16 -17 -22 -7 -28 7 -5 10 -4 5 3 -10 16 28 34 42 20 24 -24 15
-28 -63 -28 -47 0 -64 13 -45 35 8 10 9 15 1 15 -6 0 -11 -5 -11 -11 0 -5 -4
-7 -10 -4 -5 3 -7 0 -4 -9 3 -9 0 -14 -8 -12 -24 3 -38 17 -31 29 4 7 8 17 9
22 1 6 5 17 9 26 4 11 -1 24 -14 36 -18 16 -19 22 -8 37 12 16 15 16 41 -9 18
-16 26 -20 22 -10 -3 9 1 28 10 43 l16 27 -20 -25 c-18 -21 -24 -23 -41 -13
-16 10 -22 9 -36 -7 -15 -17 -16 -22 -4 -37 8 -10 18 -21 23 -24 4 -4 3 -16
-3 -28 -7 -11 -9 -21 -5 -21 3 0 1 -7 -6 -15 -10 -12 -15 -12 -36 2 -25 16
-98 113 -76 99 7 -4 12 -3 12 2 0 6 -7 12 -15 16 -8 3 -15 10 -15 16 0 6 4 9
9 6 4 -3 16 1 27 8 10 8 25 12 34 9 13 -4 13 -4 0 6 -11 7 -21 6 -36 -4 -32
-20 -42 -6 -48 68 -3 37 -8 73 -12 79 -4 6 -3 8 3 5 6 -4 14 0 17 9 3 8 2 13
-2 10 -16 -10 -8 138 9 161 9 13 19 20 22 16 4 -3 7 1 7 9 0 13 14 25 40 33
86 27 110 27 110 3 0 -7 -6 -6 -15 2 -10 9 -15 9 -15 1 0 -6 5 -11 11 -11 5 0
7 -5 3 -12 -4 -7 -3 -8 4 -4 7 4 12 3 12 -3 0 -5 -6 -12 -12 -14 -10 -4 -10
-6 0 -6 7 -1 15 6 18 14 4 8 11 12 16 9 6 -4 3 5 -6 18 -9 14 -13 28 -9 32 4
4 9 2 11 -3 2 -6 8 -11 13 -11z m1239 -10 c-14 -10 -27 -17 -29 -14 -2 2 -10
-1 -16 -6 -7 -6 -20 -8 -29 -4 -24 9 -19 23 7 17 16 -3 18 -2 9 5 -11 7 -9 10
7 15 12 3 19 1 15 -4 -3 -5 0 -9 5 -9 6 0 11 5 11 11 0 5 4 8 9 4 5 -3 13 0
16 6 4 5 10 7 13 4 4 -4 -4 -15 -18 -25z m-428 -112 c14 -10 32 -43 49 -94 15
-43 25 -80 24 -82 -2 -2 -20 1 -42 7 -46 13 -134 14 -188 1 -22 -5 -41 -7 -43
-5 -7 7 40 140 57 159 32 37 98 44 143 14z"/>
<path d="M1835 2110 c-3 -6 -1 -18 5 -27 9 -15 10 -14 4 7 -6 22 -5 23 10 11
9 -7 16 -9 16 -3 0 14 -28 23 -35 12z"/>
<path d="M1912 2101 c-11 -6 -10 -10 4 -15 9 -3 19 -4 22 -1 3 3 0 5 -7 5 -7
0 -9 5 -6 10 7 12 4 12 -13 1z"/>
<path d="M1994 2102 c4 -7 2 -12 -3 -12 -6 0 -11 -5 -11 -12 0 -9 3 -9 12 0 7
7 17 8 28 2 10 -5 22 -5 31 2 12 8 11 9 -2 5 -9 -3 -27 2 -40 10 -12 9 -19 11
-15 5z"/>
<path d="M2080 2102 c0 -6 -7 -18 -16 -27 -9 -9 -14 -18 -11 -21 3 -3 13 6 23
20 9 15 14 29 10 33 -3 3 -6 1 -6 -5z"/>
<path d="M2089 2070 c-18 -25 -24 -42 -18 -51 6 -10 9 -11 10 -1 4 36 20 63
42 71 15 6 17 9 6 13 -8 3 -24 -9 -40 -32z"/>
<path d="M1866 2071 c-9 -10 -16 -22 -15 -27 4 -22 -2 -35 -13 -28 -7 4 -8 3
-4 -5 10 -15 39 6 33 23 -3 6 0 19 5 29 8 15 12 16 24 6 8 -6 16 -10 19 -8 2
3 -4 10 -14 16 -15 10 -22 8 -35 -6z"/>
<path d="M2194 2068 c3 -15 26 -23 26 -8 0 6 -4 9 -9 6 -5 -4 -12 -1 -14 4 -3
6 -4 5 -3 -2z"/>
<path d="M1775 2060 c-4 -6 -11 -8 -16 -5 -5 4 -9 1 -9 -4 0 -14 10 -13 40 4
18 10 20 14 8 15 -9 0 -20 -5 -23 -10z"/>
<path d="M1941 2053 c12 -15 12 -16 -6 -10 -20 7 -20 7 -1 -8 22 -17 42 -19
50 -6 4 5 -4 7 -16 5 -13 -2 -17 -2 -11 2 10 4 10 9 -1 20 -20 20 -31 18 -15
-3z"/>
<path d="M1990 2059 c-12 -8 -10 -9 8 -4 23 7 23 6 7 -19 -19 -29 -13 -48 13
-39 15 6 15 5 3 -10 -9 -11 -10 -17 -2 -17 6 0 11 5 11 11 0 5 5 7 12 3 7 -4
8 -3 4 4 -4 7 -3 12 3 12 5 0 12 -6 14 -12 4 -10 6 -10 6 0 1 7 -6 15 -14 18
-8 4 -12 11 -9 16 4 6 -5 2 -20 -7 -14 -10 -26 -13 -26 -9 0 13 16 36 24 35
16 -2 18 0 6 14 -15 18 -20 18 -40 4z"/>
<path d="M2111 2067 c27 -20 60 -37 55 -28 -4 6 -3 11 2 11 16 0 22 -13 11
-27 -15 -17 -2 -17 16 0 11 11 10 16 -6 26 -11 6 -24 9 -29 6 -5 -3 -11 -1
-15 5 -3 5 -13 10 -22 10 -9 0 -14 -1 -12 -3z"/>
<path d="M1884 2048 c2 -7 0 -20 -5 -29 -4 -8 -3 -22 3 -30 8 -12 9 -11 5 2
-3 9 2 27 10 40 9 12 12 19 6 16 -6 -4 -14 -2 -16 3 -3 6 -4 5 -3 -2z"/>
<path d="M1625 2039 c-4 -6 -5 -12 -2 -15 2 -3 7 2 10 11 7 17 1 20 -8 4z"/>
<path d="M1730 2042 c0 -8 9 -25 20 -39 26 -33 26 -23 0 19 -11 18 -20 27 -20
20z"/>
<path d="M1797 2044 c-3 -3 0 -15 6 -26 10 -16 9 -22 -7 -34 -11 -8 -15 -14
-9 -14 7 0 15 5 18 11 4 6 14 8 22 5 9 -4 7 4 -8 25 l-22 31 24 -7 c18 -5 21
-4 9 4 -17 12 -24 13 -33 5z"/>
<path d="M2100 2040 c0 -5 5 -10 10 -10 6 0 10 5 10 10 0 6 -4 10 -10 10 -5 0
-10 -4 -10 -10z"/>
<path d="M1641 2021 c-12 -22 14 -51 45 -51 13 1 8 5 -14 15 -29 13 -32 17
-22 35 6 11 8 20 6 20 -3 0 -10 -8 -15 -19z"/>
<path d="M1770 2020 c0 -5 5 -10 11 -10 5 0 7 -5 3 -12 -4 -7 -3 -8 5 -4 9 6
9 11 0 22 -14 17 -19 18 -19 4z"/>
<path d="M1914 2023 c3 -6 0 -13 -6 -16 -7 -2 -11 -7 -8 -10 3 -3 12 -2 20 3
13 8 13 11 1 22 -8 8 -11 8 -7 1z"/>
<path d="M2130 2019 c0 -5 -5 -7 -12 -3 -7 4 -8 3 -4 -5 6 -9 11 -9 22 0 17
14 18 19 4 19 -5 0 -10 -5 -10 -11z"/>
<path d="M2090 2014 c0 -6 5 -15 11 -21 9 -9 6 -19 -10 -41 -11 -17 -21 -34
-21 -39 0 -4 9 6 21 24 11 17 31 39 45 48 24 16 25 15 40 -20 16 -40 41 -42
36 -4 -1 13 -3 33 -3 44 0 16 -2 17 -9 5 -5 -8 -5 -21 1 -31 12 -23 12 -39 -1
-39 -5 0 -10 8 -10 17 0 9 -7 24 -16 34 -13 15 -20 16 -36 6 -16 -10 -22 -9
-34 7 -8 11 -14 15 -14 10z"/>
<path d="M1660 2006 c0 -2 9 -6 20 -9 11 -3 20 -1 20 4 0 5 -9 9 -20 9 -11 0
-20 -2 -20 -4z"/>
<path d="M1941 1994 c0 -11 3 -14 6 -6 3 7 2 16 -1 19 -3 4 -6 -2 -5 -13z"/>
<path d="M1970 1998 c0 -9 4 -19 9 -23 5 -3 8 -20 6 -38 -2 -17 -1 -26 2 -19
2 6 12 12 21 12 14 0 15 2 3 9 -8 5 -16 16 -17 24 -1 8 -7 23 -13 34 -9 16
-10 16 -11 1z"/>
<path d="M2220 1998 c0 -4 5 -8 11 -8 5 0 7 -4 4 -10 -4 -6 1 -7 11 -3 11 4
13 8 6 11 -7 2 -10 7 -8 11 3 4 -1 8 -9 8 -8 0 -15 -4 -15 -9z"/>
<path d="M1604 1972 c-9 -13 -8 -20 2 -30 19 -17 29 -15 14 3 -10 12 -10 18 0
30 7 8 8 15 4 15 -5 0 -14 -8 -20 -18z"/>
<path d="M1722 1974 c-11 -12 -11 -17 2 -29 19 -20 32 -19 16 0 -10 12 -10 18
0 30 16 19 -1 19 -18 -1z"/>
<path d="M1862 1970 c12 -19 28 -27 28 -14 0 7 -27 34 -34 34 -4 0 -1 -9 6
-20z"/>
<path d="M1912 1981 c-11 -6 -10 -10 4 -15 9 -3 19 -4 22 -1 3 3 0 5 -7 5 -7
0 -9 5 -6 10 7 12 4 12 -13 1z"/>
<path d="M2080 1982 c0 -6 -7 -18 -16 -27 -9 -9 -14 -18 -11 -21 3 -3 13 6 23
20 9 15 14 29 10 33 -3 3 -6 1 -6 -5z"/>
<path d="M2150 1969 c0 -5 -3 -8 -7 -6 -5 3 -13 -1 -19 -7 -9 -10 -5 -13 20
-13 17 0 26 2 19 4 -7 3 -9 11 -6 19 3 8 2 14 -1 14 -3 0 -6 -5 -6 -11z"/>
<path d="M1630 1960 c0 -5 5 -10 10 -10 6 0 10 5 10 10 0 6 -4 10 -10 10 -5 0
-10 -4 -10 -10z"/>
<path d="M1750 1960 c0 -5 5 -10 10 -10 6 0 10 5 10 10 0 6 -4 10 -10 10 -5 0
-10 -4 -10 -10z"/>
<path d="M1813 1958 c2 -7 12 -12 21 -12 9 1 16 -2 16 -7 0 -5 5 -9 10 -9 6 0
5 8 -2 20 -7 11 -14 16 -16 10 -2 -5 -8 -10 -13 -10 -6 0 -7 5 -4 10 3 6 1 10
-5 10 -7 0 -10 -6 -7 -12z"/>
<path d="M1943 1955 c-17 -19 -16 -30 1 -16 11 9 14 6 14 -13 0 -21 -3 -24
-19 -16 -10 6 -24 10 -31 10 -7 0 0 -7 16 -15 35 -18 41 -14 42 31 1 37 -4 41
-23 19z"/>
<path d="M2035 1959 c-11 -16 -1 -19 13 -3 7 8 8 14 3 14 -5 0 -13 -5 -16 -11z"/>
<path d="M2242 1954 c-7 -8 -8 -14 -3 -14 10 0 25 19 20 25 -2 1 -10 -3 -17
-11z"/>
<path d="M1668 1943 c6 -2 18 -2 25 0 6 3 1 5 -13 5 -14 0 -19 -2 -12 -5z"/>
<path d="M1757 1922 c-15 -15 -27 -35 -27 -43 1 -7 7 -2 16 13 8 15 23 32 33
37 16 9 19 7 19 -15 0 -19 -3 -22 -14 -13 -10 8 -14 8 -14 0 0 -6 5 -11 11
-11 5 0 8 -4 5 -8 -8 -14 27 -10 49 4 11 8 15 14 10 14 -6 0 -3 5 5 11 13 9
13 10 -2 6 -9 -3 -19 -1 -22 6 -2 7 -4 1 -3 -12 1 -13 -3 -26 -9 -28 -6 -2
-10 10 -10 28 1 42 -14 46 -47 11z"/>
<path d="M1889 1933 c-13 -15 -12 -15 9 -4 23 12 28 21 13 21 -5 0 -15 -7 -22
-17z"/>
<path d="M1637 1926 c-3 -8 4 -27 15 -43 12 -15 23 -30 25 -32 2 -3 10 4 18
15 29 37 34 50 23 65 -8 11 -9 11 -4 -3 3 -9 -4 -27 -15 -40 l-19 -23 -19 23
c-11 13 -17 30 -14 37 3 8 3 15 0 15 -3 0 -7 -6 -10 -14z"/>
<path d="M1660 1918 c0 -4 9 -8 20 -8 11 0 20 4 20 8 0 4 -9 8 -20 8 -11 0
-20 -4 -20 -8z"/>
<path d="M2003 1908 c-32 -20 -43 -38 -22 -38 5 0 8 3 5 8 -2 4 9 15 25 25
l30 17 15 -35 c13 -33 34 -48 34 -24 0 5 -4 7 -10 4 -5 -3 -10 2 -10 13 0 10
-8 26 -17 34 -16 14 -21 13 -50 -4z"/>
<path d="M2094 1918 c-3 -5 -1 -15 5 -22 6 -7 8 -16 4 -19 -3 -4 -1 -7 5 -7
15 0 15 6 2 29 -8 16 -5 19 16 19 19 0 22 -3 13 -14 -17 -21 -2 -17 19 4 18
18 18 19 -20 19 -21 0 -41 -4 -44 -9z"/>
<path d="M2230 1920 c7 -4 17 -14 22 -21 8 -11 9 -10 5 3 -3 9 -1 19 6 21 7 2
-1 4 -17 4 -17 0 -23 -3 -16 -7z"/>
<path d="M2212 1904 c10 -10 20 -15 24 -12 3 4 -5 12 -18 18 -22 12 -22 12 -6
-6z"/>
<path d="M1858 1885 c-6 -13 -15 -22 -19 -19 -5 3 -9 0 -9 -5 0 -20 20 -11 32
14 6 14 15 25 20 25 13 0 9 -28 -4 -34 -7 -3 -3 -3 9 0 14 3 25 -1 32 -13 6
-10 11 -14 11 -10 0 12 -42 67 -52 67 -5 0 -13 -11 -20 -25z"/>
<path d="M2164 1893 c-12 -28 -14 -64 -3 -57 6 3 8 12 5 19 -2 7 2 22 10 34 8
11 11 21 6 21 -6 0 -13 -8 -18 -17z"/>
<path d="M1621 1884 c0 -11 3 -14 6 -6 3 7 2 16 -1 19 -3 4 -6 -2 -5 -13z"/>
<path d="M1940 1871 c30 -27 33 -34 23 -51 -14 -22 -3 -33 22 -23 16 6 16 4 0
-20 -19 -30 -31 -33 -55 -14 -9 6 1 -4 23 -23 21 -19 36 -42 34 -50 -2 -8 -2
-12 0 -8 2 4 12 4 21 1 15 -4 15 -3 2 6 -8 6 -11 11 -6 11 4 0 -2 8 -15 19
l-22 18 21 31 c23 32 17 47 -15 35 -14 -5 -13 0 9 28 18 23 34 33 50 32 12 -1
18 1 11 3 -7 3 -9 13 -6 22 4 15 3 15 -6 2 -6 -8 -11 -11 -11 -6 0 4 -8 -2
-19 -15 l-19 -23 -38 28 -39 27 35 -30z"/>
<path d="M2190 1888 c15 -16 48 -26 60 -18 12 7 10 9 -5 8 -11 0 -29 3 -40 7
-11 5 -18 6 -15 3z"/>
<path d="M1750 1870 c0 -5 5 -10 10 -10 6 0 10 5 10 10 0 6 -4 10 -10 10 -5 0
-10 -4 -10 -10z"/>
<path d="M1714 1862 c3 -5 -1 -12 -9 -16 -8 -3 -15 -11 -14 -18 0 -10 2 -10 6
0 2 6 9 12 14 12 6 0 7 -5 3 -12 -4 -7 -3 -8 4 -4 7 4 12 2 12 -3 0 -6 5 -11
11 -11 8 0 7 6 -2 16 -12 15 -11 16 9 10 15 -5 22 -3 22 5 0 7 -3 9 -7 6 -3
-4 -17 0 -31 9 -13 9 -22 12 -18 6z"/>
<path d="M2188 1863 c6 -2 12 -9 12 -14 0 -6 -5 -7 -12 -3 -7 4 -8 3 -4 -4 4
-7 2 -12 -3 -12 -6 0 -11 -5 -11 -11 0 -8 6 -7 17 2 15 12 16 12 11 -3 -7 -17
13 -40 45 -51 28 -10 20 1 -14 18 -30 16 -30 17 -14 42 10 14 13 23 7 19 -5
-3 -12 1 -16 9 -3 8 -11 15 -18 14 -10 0 -10 -2 0 -6z"/>
<path d="M1793 1853 c10 -2 31 -28 47 -56 16 -29 30 -46 30 -39 0 24 -60 102
-78 101 -15 -1 -15 -2 1 -6z"/>
<path d="M2091 1832 c-14 -20 -17 -32 -10 -43 8 -12 10 -12 8 1 -3 24 12 51
35 60 16 7 17 9 4 9 -9 1 -26 -12 -37 -27z"/>
<path d="M2245 1850 c-3 -6 1 -7 9 -4 18 7 21 14 7 14 -6 0 -13 -4 -16 -10z"/>
<path d="M1854 1839 c-3 -5 4 -22 15 -38 26 -37 26 -45 -1 -66 -22 -16 -22
-16 5 0 27 16 47 13 47 -6 0 -6 -4 -7 -10 -4 -5 3 -18 1 -27 -5 -15 -9 -14
-10 7 -4 22 6 23 5 11 -10 -7 -9 -9 -16 -5 -16 5 0 15 9 22 20 11 18 9 25 -11
53 -14 18 -30 43 -37 56 -10 20 -10 23 2 18 8 -3 21 -2 27 3 9 5 4 8 -13 8
-15 0 -29 -4 -32 -9z"/>
<path d="M1941 1843 c-1 -7 -10 -22 -21 -33 -11 -11 -16 -20 -12 -20 16 0 44
39 39 52 -4 10 -6 10 -6 1z"/>
<path d="M2021 1840 c6 -5 18 -6 26 -3 9 4 11 0 7 -13 -6 -15 -4 -16 6 -7 17
16 5 31 -26 31 -17 0 -22 -3 -13 -8z"/>
<path d="M1772 1818 c-7 -7 -12 -17 -12 -22 0 -8 3 -7 8 0 4 6 16 16 27 22 15
8 16 11 5 12 -9 0 -21 -5 -28 -12z"/>
<path d="M1895 1820 c-3 -5 -2 -10 4 -10 5 0 13 5 16 10 3 6 2 10 -4 10 -5 0
-13 -4 -16 -10z"/>
<path d="M2005 1818 c29 -16 29 -16 14 -34 -11 -14 -11 -18 4 -29 9 -6 13 -16
9 -20 -4 -4 5 0 19 9 14 9 29 13 32 9 4 -3 7 -3 7 1 0 9 -26 36 -36 36 -3 0
-1 -6 5 -14 9 -11 6 -13 -13 -13 -22 0 -24 2 -15 19 12 23 -4 48 -30 48 -13
-1 -12 -3 4 -12z"/>
<path d="M2133 1814 c23 -12 26 -18 17 -35 -7 -12 -7 -25 -2 -36 9 -14 10 -14
16 5 4 12 12 22 17 22 5 0 9 5 9 11 0 8 -6 7 -17 -2 -15 -12 -16 -12 -11 3 7
18 -20 48 -43 48 -8 -1 -2 -8 14 -16z"/>
<path d="M1634 1798 c-4 -6 -3 -8 4 -4 5 3 13 0 15 -6 3 -8 6 -6 6 5 1 19 -14
23 -25 5z"/>
<path d="M1680 1800 c9 -6 9 -9 -1 -12 -8 -3 2 -5 21 -5 19 0 29 2 22 5 -6 2
-10 7 -7 12 2 4 -7 8 -21 8 -16 0 -21 -3 -14 -8z"/>
<path d="M1790 1800 c-8 -5 -10 -10 -5 -10 6 0 17 5 25 10 8 5 11 10 5 10 -5
0 -17 -5 -25 -10z"/>
<path d="M2100 1802 c0 -4 10 -9 22 -9 18 -2 20 0 8 7 -18 12 -30 13 -30 2z"/>
<path d="M2235 1800 c27 -12 43 -12 25 0 -8 5 -22 9 -30 9 -10 0 -8 -3 5 -9z"/>
<path d="M1740 1791 c0 -6 4 -13 10 -16 6 -3 7 1 4 9 -7 18 -14 21 -14 7z"/>
<path d="M1810 1779 c0 -5 -5 -7 -12 -3 -7 4 -8 3 -4 -5 6 -9 11 -9 22 0 17
14 18 19 4 19 -5 0 -10 -5 -10 -11z"/>
<path d="M1935 1780 c3 -5 14 -10 23 -10 15 0 15 2 2 10 -20 13 -33 13 -25 0z"/>
<path d="M1770 1773 c0 -7 5 -15 11 -18 6 -4 8 -14 5 -22 -4 -9 4 -7 25 8 l31
22 -6 -24 c-6 -20 -5 -21 4 -6 16 25 3 39 -21 24 -17 -10 -22 -9 -35 7 -8 11
-14 15 -14 9z"/>
<path d="M2108 1773 c7 -3 16 -2 19 1 4 3 -2 6 -13 5 -11 0 -14 -3 -6 -6z"/>
<path d="M1681 1749 c22 -22 37 -26 20 -5 -9 11 -6 14 13 14 21 0 24 -3 16
-19 -13 -23 -13 -29 2 -29 6 0 8 3 5 7 -4 3 -2 12 5 20 15 19 3 28 -42 29 -37
2 -37 1 -19 -17z"/>
<path d="M2189 1758 c-11 -8 -11 -9 2 -5 9 3 26 -1 38 -9 11 -8 21 -11 21 -6
0 16 -46 31 -61 20z"/>
<path d="M1665 1730 c20 -22 8 -28 -15 -7 -12 10 -12 9 -1 -5 13 -18 41 -25
41 -10 -1 11 -26 42 -35 42 -5 0 0 -9 10 -20z"/>
<path d="M1759 1740 c-2 -15 -4 -22 -13 -49 -5 -14 -4 -27 2 -33 8 -8 9 -4 6
13 -2 13 -2 18 2 12 4 -10 9 -10 20 1 19 19 18 32 -1 16 -14 -12 -15 -9 -10
18 3 18 3 32 0 32 -3 0 -6 -4 -6 -10z"/>
<path d="M1990 1739 c0 -5 3 -8 8 -5 4 2 15 -9 25 -25 l17 -30 -33 -14 c-22
-10 -26 -14 -13 -15 11 0 27 7 37 16 16 15 16 17 -3 50 -19 33 -38 45 -38 23z"/>
<path d="M2095 1740 c-4 -6 -11 -8 -16 -5 -5 4 -9 1 -9 -5 0 -7 6 -10 14 -7
14 6 36 -10 36 -26 0 -5 -7 -4 -15 3 -10 9 -15 9 -15 1 0 -6 5 -11 11 -11 5 0
7 -5 3 -12 -4 -7 -3 -8 4 -4 7 4 12 3 12 -3 0 -5 -6 -12 -12 -14 -10 -4 -10
-6 0 -6 7 -1 15 6 18 14 4 8 11 12 16 9 6 -4 2 5 -7 20 -17 26 -12 33 13 17 8
-4 13 -12 12 -17 -1 -5 3 -9 10 -10 6 -2 7 -1 0 3 -5 2 -8 9 -5 13 7 11 -32
33 -45 25 -5 -3 -11 -1 -14 4 -4 5 2 12 11 14 16 4 16 5 1 6 -9 0 -20 -4 -23
-9z"/>
<path d="M2170 1735 c0 -5 5 -17 10 -25 5 -8 10 -10 10 -5 0 6 -5 17 -10 25
-5 8 -10 11 -10 5z"/>
<path d="M2198 1728 c7 -7 8 -17 2 -28 -5 -10 -5 -22 2 -31 8 -12 9 -11 5 2
-3 9 2 27 10 40 9 12 11 19 5 15 -7 -4 -12 -2 -12 3 0 6 -5 11 -12 11 -9 0 -9
-3 0 -12z"/>
<path d="M1806 1721 c-7 -10 22 -36 31 -28 3 4 14 2 24 -4 18 -9 18 -11 3 -35
-14 -20 -19 -22 -32 -12 -12 10 -14 10 -8 1 4 -7 2 -13 -3 -13 -6 0 -11 -5
-11 -11 0 -8 6 -7 16 2 15 12 16 11 9 -11 -4 -16 4 -9 23 20 27 41 28 47 14
63 -8 9 -20 17 -26 16 -24 -3 -37 2 -31 11 3 6 4 10 1 10 -3 0 -7 -4 -10 -9z"/>
<path d="M1941 1723 c-1 -7 -10 -22 -21 -33 -11 -11 -16 -20 -12 -20 16 0 44
39 39 52 -4 10 -6 10 -6 1z"/>
<path d="M2051 1714 c0 -11 3 -14 6 -6 3 7 2 16 -1 19 -3 4 -6 -2 -5 -13z"/>
<path d="M1957 1697 c-3 -8 -2 -20 3 -26 5 -9 8 -4 8 13 0 29 -3 32 -11 13z"/>
<path d="M2234 1702 c3 -5 0 -12 -6 -15 -7 -2 -10 -7 -7 -11 3 -4 12 0 18 8 9
11 9 16 0 22 -7 4 -9 3 -5 -4z"/>
<path d="M1708 1693 c7 -3 16 -2 19 1 4 3 -2 6 -13 5 -11 0 -14 -3 -6 -6z"/>
<path d="M1676 1673 c-6 -14 -5 -15 5 -6 7 7 10 15 7 18 -3 3 -9 -2 -12 -12z"/>
<path d="M1789 1678 c-12 -8 -11 -9 2 -5 9 3 27 -2 40 -10 12 -9 19 -12 16 -6
-4 6 -2 14 3 16 6 3 5 4 -2 3 -7 -2 -20 0 -29 5 -8 4 -22 3 -30 -3z"/>
<path d="M2072 1676 c7 -8 15 -12 17 -11 5 6 -10 25 -20 25 -5 0 -4 -6 3 -14z"/>
<path d="M1689 1653 c-13 -15 -12 -15 11 -3 34 17 36 20 18 20 -9 0 -22 -7
-29 -17z"/>
<path d="M1942 1650 c12 -19 28 -27 28 -14 0 7 -27 34 -34 34 -4 0 -1 -9 6
-20z"/>
<path d="M2066 1646 c10 -16 21 -23 32 -19 13 6 12 8 -6 16 -12 6 -22 14 -22
19 0 4 -5 8 -10 8 -6 0 -3 -11 6 -24z"/>
<path d="M2170 1659 c0 -5 -4 -8 -8 -5 -4 2 -14 1 -22 -5 -10 -6 -11 -9 -2 -9
20 0 26 -2 44 -11 22 -12 56 0 36 12 -7 5 -22 6 -33 2 -17 -5 -18 -4 -6 11 9
10 10 16 2 16 -6 0 -11 -5 -11 -11z"/>
<path d="M1771 1644 c0 -11 3 -14 6 -6 3 7 2 16 -1 19 -3 4 -6 -2 -5 -13z"/>
<path d="M1793 1638 c-2 -18 0 -20 7 -8 12 18 13 30 2 30 -4 0 -9 -10 -9 -22z"/>
<path d="M1891 1644 c0 -11 3 -14 6 -6 3 7 2 16 -1 19 -3 4 -6 -2 -5 -13z"/>
<path d="M1913 1642 c0 -18 14 -32 32 -32 6 1 2 7 -7 14 -10 7 -15 15 -12 18
3 4 1 8 -4 12 -5 3 -9 -3 -9 -12z"/>
<path d="M1730 1640 c8 -5 20 -10 25 -10 6 0 3 5 -5 10 -8 5 -19 10 -25 10 -5
0 -3 -5 5 -10z"/>
<path d="M2025 1640 c-3 -5 -14 -10 -24 -10 -10 0 -24 -7 -31 -16 -12 -13 -10
-14 16 -3 39 18 71 39 57 39 -7 0 -15 -4 -18 -10z"/>
<path d="M1717 1616 c-4 -9 -1 -15 6 -13 7 1 11 -4 9 -11 -1 -8 2 -11 8 -7 8
5 7 12 -2 23 -7 10 -13 18 -14 20 -1 2 -4 -4 -7 -12z"/>
<path d="M1874 1623 c3 -3 -2 -12 -12 -19 -16 -11 -16 -13 1 -32 12 -13 15
-22 8 -27 -6 -3 -11 -11 -11 -18 0 -6 6 -2 14 9 9 11 11 23 5 30 -5 6 -4 15 3
22 17 17 33 15 18 -3 -9 -10 -9 -15 -1 -15 6 0 11 4 11 9 0 5 6 11 14 13 7 2
-2 10 -21 20 -19 9 -32 14 -29 11z m6 -28 c-7 -9 -15 -13 -19 -10 -3 3 1 10 9
15 21 14 24 12 10 -5z"/>
<path d="M2039 1628 c-9 -20 -4 -59 9 -70 11 -9 14 -10 8 0 -4 6 -2 12 3 12 6
0 11 5 11 11 0 8 -4 8 -14 0 -11 -9 -13 -6 -13 13 0 23 2 24 21 14 19 -10 20
-10 7 5 -12 15 -29 22 -32 15z"/>
<path d="M2114 1615 c-4 -8 -11 -12 -17 -8 -6 3 -3 -4 6 -16 8 -13 13 -30 10
-39 -4 -10 1 -8 15 6 24 24 30 41 8 23 -11 -9 -13 -6 -13 13 0 21 2 24 18 16
23 -13 29 -13 29 1 0 5 -4 8 -9 4 -5 -3 -12 -1 -16 5 -9 15 -25 12 -31 -5z"/>
<path d="M1758 1613 c7 -3 16 -2 19 1 4 3 -2 6 -13 5 -11 0 -14 -3 -6 -6z"/>
<path d="M1769 1590 l-24 -21 27 16 c17 11 28 13 33 6 3 -6 1 -11 -4 -11 -6 0
-11 -8 -11 -17 0 -15 2 -14 16 3 15 19 15 18 9 -3 -3 -12 -2 -24 3 -27 17 -10
10 43 -8 59 -16 14 -19 14 -41 -5z"/>
<path d="M2010 1600 c0 -5 -8 -7 -17 -4 -15 5 -16 4 -3 -5 8 -6 11 -11 6 -11
-4 0 2 -8 15 -19 21 -17 22 -21 9 -37 -14 -17 -14 -18 2 -5 10 7 26 10 35 7
10 -4 3 5 -15 20 -23 19 -31 31 -27 45 4 10 4 19 1 19 -3 0 -6 -4 -6 -10z"/>
<path d="M2181 1594 c0 -11 3 -14 6 -6 3 7 2 16 -1 19 -3 4 -6 -2 -5 -13z"/>
<path d="M1940 1570 c-6 -10 -16 -18 -23 -16 -6 1 -9 1 -4 -1 4 -3 4 -10 0
-16 -4 -8 -1 -7 9 1 8 7 22 11 29 9 8 -2 11 -2 7 0 -11 6 -10 33 0 33 5 0 14
-11 20 -25 12 -25 32 -34 32 -14 0 5 -4 8 -9 5 -4 -3 -13 6 -19 19 -14 30 -28
32 -42 5z"/>
<path d="M1840 1560 c0 -5 5 -10 11 -10 5 0 7 5 4 10 -3 6 -8 10 -11 10 -2 0
-4 -4 -4 -10z"/>
<path d="M2075 1560 c-8 -13 3 -30 18 -29 9 0 9 2 0 6 -7 2 -13 9 -13 14 0 6
5 7 10 4 6 -3 10 -1 10 4 0 14 -17 14 -25 1z"/>
<path d="M623 2113 c-7 -2 -13 -9 -13 -15 0 -6 7 -5 16 3 15 12 16 11 11 -6
-8 -26 7 -54 17 -30 5 13 -9 57 -17 54 -1 0 -8 -3 -14 -6z"/>
<path d="M743 2113 c-7 -2 -13 -9 -13 -15 0 -6 6 -6 15 2 8 7 15 8 15 2 0 -19
-26 -32 -38 -20 -7 7 -12 8 -12 2 0 -5 10 -15 22 -23 19 -12 23 -11 33 3 7 8
16 12 20 8 4 -4 0 5 -10 21 -9 15 -18 27 -19 26 0 0 -7 -3 -13 -6z m21 -38
c-4 -8 -11 -15 -16 -15 -6 0 -5 6 2 15 7 8 14 15 16 15 2 0 1 -7 -2 -15z"/>
<path d="M440 2092 c0 -4 -10 -8 -21 -9 -12 -1 -27 -7 -33 -13 -8 -8 -4 -9 14
-2 14 5 31 7 38 5 6 -3 12 2 12 11 0 9 -2 16 -5 16 -3 0 -5 -4 -5 -8z"/>
<path d="M471 2083 c7 -12 15 -20 18 -17 3 2 -3 12 -13 22 -17 16 -18 16 -5
-5z"/>
<path d="M558 2093 c7 -3 16 -2 19 1 4 3 -2 6 -13 5 -11 0 -14 -3 -6 -6z"/>
<path d="M678 2093 c7 -3 16 -2 19 1 4 3 -2 6 -13 5 -11 0 -14 -3 -6 -6z"/>
<path d="M814 2075 c25 -27 36 -31 36 -14 0 5 -4 7 -10 4 -5 -3 -10 0 -10 8 0
8 -7 18 -16 21 -25 9 -25 8 0 -19z"/>
<path d="M563 2068 c-15 -12 -30 -23 -32 -25 -3 -2 4 -10 15 -18 37 -29 50
-34 65 -23 11 8 11 9 -3 4 -9 -3 -27 4 -40 15 l-23 19 23 19 c13 11 30 17 37
14 8 -3 15 -3 15 0 0 16 -33 13 -57 -5z"/>
<path d="M859 2076 c6 -8 10 -19 9 -26 -2 -7 4 -15 12 -17 13 -4 13 -3 0 6
-11 8 -12 11 -2 11 7 0 11 4 8 9 -4 5 -3 11 1 14 5 2 2 2 -4 1 -7 -2 -13 1
-13 6 0 6 -5 10 -11 10 -8 0 -8 -4 0 -14z"/>
<path d="M916 2067 c3 -10 9 -15 12 -12 3 3 0 11 -7 18 -10 9 -11 8 -5 -6z"/>
<path d="M450 2055 c-11 -13 -15 -13 -21 -3 -7 10 -9 9 -9 -4 0 -10 7 -16 19
-15 11 0 18 4 15 8 -2 4 2 9 8 12 7 2 10 7 7 11 -3 4 -12 -1 -19 -9z"/>
<path d="M678 2063 c7 -3 16 -2 19 1 4 3 -2 6 -13 5 -11 0 -14 -3 -6 -6z"/>
<path d="M775 2048 c-16 -11 -21 -17 -10 -13 11 4 29 8 40 7 11 0 14 2 7 5 -6
3 -10 9 -6 14 7 12 4 11 -31 -13z"/>
<path d="M393 2053 c-7 -2 -13 -12 -13 -20 0 -13 -3 -13 -15 -3 -10 9 -15 9
-15 1 0 -6 5 -11 11 -11 5 0 8 -4 4 -10 -3 -5 -13 -7 -23 -4 -14 5 -14 4 -2
-4 8 -6 17 -9 22 -6 8 5 52 65 46 63 -2 0 -9 -3 -15 -6z"/>
<path d="M590 2040 c0 -11 4 -20 8 -20 4 0 8 9 8 20 0 11 -4 20 -8 20 -4 0 -8
-9 -8 -20z"/>
<path d="M622 2040 c0 -14 2 -19 5 -12 2 6 2 18 0 25 -3 6 -5 1 -5 -13z"/>
<path d="M711 2055 c0 -13 28 -50 33 -44 3 2 -4 15 -14 29 -11 14 -20 21 -19
15z"/>
<path d="M479 2048 c-6 -14 -6 -57 0 -53 8 4 12 55 5 55 -2 0 -5 -1 -5 -2z"/>
<path d="M660 2040 c0 -5 5 -10 10 -10 6 0 10 5 10 10 0 6 -4 10 -10 10 -5 0
-10 -4 -10 -10z"/>
<path d="M948 2043 c7 -3 16 -2 19 1 4 3 -2 6 -13 5 -11 0 -14 -3 -6 -6z"/>
<path d="M820 2031 c-8 -6 -18 -7 -23 -4 -4 3 -17 -3 -27 -12 -14 -13 -17 -22
-10 -35 6 -11 5 -21 -2 -28 -9 -9 -9 -12 0 -12 7 0 12 5 12 11 0 5 5 7 11 3 6
-3 4 5 -6 19 -15 24 -15 26 2 35 10 5 23 8 29 5 6 -2 17 3 24 12 14 17 11 19
-10 6z"/>
<path d="M929 2026 c9 -11 21 -14 35 -10 18 6 19 5 7 -9 -9 -12 -18 -14 -30
-7 -11 5 -23 5 -32 -2 -12 -8 -11 -9 2 -5 9 3 27 -2 40 -10 13 -9 21 -13 17
-8 -4 4 0 14 8 22 15 16 9 37 -9 30 -7 -2 -21 0 -32 6 -18 9 -19 9 -6 -7z"/>
<path d="M397 2016 c-10 -25 -8 -33 3 -16 8 13 10 13 10 -1 0 -23 -11 -30 -27
-18 -9 9 -13 8 -13 0 0 -6 5 -11 11 -11 5 0 7 -6 3 -12 -4 -7 4 -3 16 9 19 18
22 26 14 44 -9 20 -11 21 -17 5z"/>
<path d="M508 2023 c6 -2 12 -9 12 -14 0 -6 -5 -7 -12 -3 -7 4 -8 3 -4 -4 4
-7 2 -12 -3 -12 -6 0 -11 -5 -11 -11 0 -8 5 -8 15 1 18 15 20 -1 3 -18 -7 -7
-9 -12 -6 -12 4 0 17 14 29 32 13 17 18 29 12 25 -6 -4 -13 0 -17 8 -3 8 -11
15 -18 14 -10 0 -10 -2 0 -6z"/>
<path d="M700 2015 c15 -18 -1 -20 -19 -2 -11 10 -13 10 -7 0 4 -7 3 -13 -3
-13 -5 0 -12 6 -14 13 -4 9 -6 9 -6 -1 -1 -7 6 -15 14 -18 8 -4 12 -11 8 -17
-3 -6 4 -3 16 6 13 8 30 13 39 10 10 -4 8 1 -6 15 -25 25 -41 30 -22 7z"/>
<path d="M850 2026 c0 -4 7 -14 15 -22 13 -14 17 -14 30 0 8 8 15 18 15 22 0
3 -7 1 -15 -6 -12 -10 -18 -10 -30 0 -8 7 -15 9 -15 6z"/>
<path d="M438 2013 c7 -3 16 -2 19 1 4 3 -2 6 -13 5 -11 0 -14 -3 -6 -6z"/>
<path d="M622 1994 c-17 -19 -15 -29 3 -14 18 15 20 0 3 -20 -11 -12 -10 -12
5 -1 9 7 17 9 17 3 0 -5 -10 -16 -22 -24 -23 -15 -17 -43 8 -34 8 3 14 1 14
-4 0 -6 5 -10 11 -10 8 0 8 4 0 14 -9 11 -6 14 14 14 25 0 25 -1 10 -24 -8
-13 -12 -24 -8 -24 12 0 34 40 28 50 -7 11 -46 9 -63 -3 -7 -6 -15 -7 -19 -3
-11 11 31 35 52 31 11 -3 14 -2 7 1 -8 4 -21 19 -30 34 -14 22 -19 25 -30 14z"/>
<path d="M820 2000 c-7 -4 -18 -7 -24 -6 -6 2 -8 1 -3 -1 4 -3 4 -10 0 -16 -3
-6 4 -3 16 6 13 8 30 13 37 10 8 -3 14 -3 14 0 0 10 -27 15 -40 7z"/>
<path d="M453 1974 c15 -8 27 -20 27 -26 0 -6 3 -8 7 -5 9 10 -27 47 -46 47
-10 -1 -5 -7 12 -16z"/>
<path d="M573 1974 c15 -8 27 -20 27 -26 0 -6 3 -8 7 -5 9 10 -27 47 -46 47
-10 -1 -5 -7 12 -16z"/>
<path d="M981 1968 c-11 -17 -10 -23 4 -37 16 -15 17 -15 7 5 -8 15 -8 24 0
32 7 7 10 14 7 16 -3 3 -11 -4 -18 -16z"/>
<path d="M350 1975 c0 -5 5 -17 10 -25 5 -8 10 -10 10 -5 0 6 -5 17 -10 25 -5
8 -10 11 -10 5z"/>
<path d="M710 1969 c0 -5 -5 -7 -11 -3 -14 9 21 -53 39 -68 8 -7 12 -7 12 1 0
6 -3 11 -8 11 -4 0 -13 9 -20 21 -10 16 -10 24 -1 35 8 10 8 14 0 14 -6 0 -11
-5 -11 -11z"/>
<path d="M736 1965 c-9 -26 -7 -32 5 -12 6 10 9 21 6 23 -2 3 -7 -2 -11 -11z"/>
<path d="M830 1969 c0 -5 -5 -7 -11 -3 -6 3 -4 -5 6 -19 9 -14 12 -27 8 -30
-11 -7 -33 19 -25 29 4 4 -4 0 -17 -9 -13 -8 -31 -13 -40 -10 -13 4 -14 3 -2
-5 9 -7 21 -7 32 -2 12 7 21 5 30 -7 12 -14 11 -15 -7 -9 -24 7 -63 -27 -45
-39 6 -3 11 -11 11 -17 0 -6 -9 -3 -20 7 -11 10 -20 13 -20 7 0 -7 5 -12 11
-12 5 0 7 -5 3 -12 -4 -7 -3 -8 4 -4 7 4 12 3 12 -3 0 -5 -6 -12 -12 -14 -10
-4 -10 -6 0 -6 7 -1 15 6 18 14 4 8 11 12 18 8 6 -4 3 5 -6 20 -17 25 -17 27
1 36 10 6 21 7 25 4 3 -3 15 2 26 12 14 13 17 22 10 35 -6 11 -5 21 2 28 9 9
9 12 0 12 -7 0 -12 -5 -12 -11z"/>
<path d="M856 1965 c-9 -26 -7 -32 5 -12 6 10 9 21 6 23 -2 3 -7 -2 -11 -11z"/>
<path d="M882 1960 c-7 -12 -8 -20 -2 -20 5 0 10 5 10 11 0 5 4 7 10 4 6 -3 7
1 4 9 -8 20 -7 20 -22 -4z"/>
<path d="M915 1970 c3 -5 8 -10 11 -10 2 0 4 5 4 10 0 6 -5 10 -11 10 -5 0 -7
-4 -4 -10z"/>
<path d="M425 1953 c4 -10 7 -27 7 -38 -1 -15 1 -17 8 -5 5 8 5 21 0 31 -5 9
-6 19 -3 23 3 3 1 6 -6 6 -9 0 -11 -6 -6 -17z"/>
<path d="M515 1945 l-30 -25 -17 23 c-10 12 -18 17 -18 11 0 -18 37 -47 45
-35 3 6 11 11 17 11 6 0 3 -9 -7 -20 -10 -11 -13 -20 -7 -20 7 0 12 5 12 11 0
5 5 7 12 3 7 -4 8 -3 4 4 -4 7 -2 12 3 12 6 0 11 -5 11 -12 0 -6 3 -8 7 -4 5
4 0 14 -10 21 -17 12 -17 14 5 29 12 9 18 16 13 16 -6 -1 -23 -12 -40 -25z"/>
<path d="M941 1965 c0 -5 6 -21 14 -35 8 -14 14 -20 14 -15 0 6 -6 21 -14 35
-8 14 -14 21 -14 15z"/>
<path d="M330 1954 c0 -20 34 -44 50 -34 9 5 19 5 27 -2 9 -7 13 -7 13 1 0 6
-5 11 -11 11 -5 0 -7 5 -3 12 4 6 -3 4 -17 -5 -23 -16 -25 -16 -41 5 -10 13
-18 18 -18 12z"/>
<path d="M570 1951 c0 -5 5 -13 10 -16 6 -3 10 -2 10 4 0 5 -4 13 -10 16 -5 3
-10 2 -10 -4z"/>
<path d="M550 1945 c0 -5 5 -17 10 -25 5 -8 10 -10 10 -5 0 6 -5 17 -10 25 -5
8 -10 11 -10 5z"/>
<path d="M907 1935 c-11 -7 -26 -11 -35 -8 -14 4 -14 3 -3 -5 8 -6 21 -7 30
-4 14 5 14 3 2 -11 -9 -11 -10 -17 -2 -17 6 0 11 5 11 11 0 5 5 7 12 3 7 -4 8
-3 4 4 -4 7 -3 12 3 12 5 0 12 -6 14 -12 4 -10 6 -10 6 0 1 7 -6 15 -14 18 -8
4 -12 10 -9 15 7 12 2 11 -19 -6z"/>
<path d="M580 1905 c-7 -9 -10 -18 -7 -21 3 -3 10 4 17 15 13 25 8 27 -10 6z"/>
<path d="M335 1900 c-3 -5 -1 -10 4 -10 6 0 11 5 11 10 0 6 -2 10 -4 10 -3 0
-8 -4 -11 -10z"/>
<path d="M390 1900 c8 -5 20 -10 25 -10 6 0 3 5 -5 10 -8 5 -19 10 -25 10 -5
0 -3 -5 5 -10z"/>
<path d="M450 1901 c0 -5 -10 -13 -22 -17 -19 -6 -19 -7 -5 -16 11 -5 24 -5
36 2 17 9 23 6 35 -17 8 -16 15 -22 16 -14 0 23 -30 50 -48 43 -15 -5 -15 -4
-3 11 9 11 10 17 2 17 -6 0 -11 -4 -11 -9z"/>
<path d="M866 1885 c9 -14 19 -24 21 -21 6 6 -20 46 -30 46 -4 0 0 -11 9 -25z"/>
<path d="M362 1892 c2 -8 7 -13 12 -12 5 1 13 -4 17 -12 16 -25 9 -30 -18 -13
-16 10 -25 14 -21 10 4 -4 0 -13 -9 -20 -15 -11 -15 -15 5 -40 12 -15 22 -23
22 -17 0 6 -5 14 -10 17 -12 8 6 35 22 35 6 0 5 -7 -2 -15 -9 -10 -9 -15 -1
-15 6 0 11 5 11 11 0 5 4 8 9 5 13 -8 6 43 -8 57 -6 6 -11 7 -11 2 0 -6 -5 -3
-11 5 -7 10 -9 11 -7 2z m-2 -57 c-7 -9 -15 -13 -19 -10 -3 3 1 10 9 15 21 14
24 12 10 -5z"/>
<path d="M588 1879 c-21 -23 -24 -36 -4 -20 11 9 14 6 14 -13 0 -21 -4 -24
-18 -16 -10 5 -20 7 -22 4 -3 -2 -13 7 -22 22 -17 25 -17 26 3 19 12 -3 21 -2
21 3 0 5 -9 9 -20 8 -20 -1 -22 -8 -12 -35 3 -7 -6 -22 -19 -32 l-24 -19 25
-20 c22 -16 23 -22 13 -39 -15 -24 -1 -37 24 -21 15 9 14 10 -6 4 l-24 -6 22
31 c13 17 16 29 9 26 -7 -2 -22 2 -32 10 -20 15 -20 15 0 29 20 15 40 16 62 2
19 -12 27 0 28 45 1 21 1 39 0 38 0 0 -9 -9 -18 -20z"/>
<path d="M623 1864 c0 -25 3 -29 13 -20 6 6 10 14 8 18 -2 3 -1 8 3 11 5 2 3
2 -4 1 -6 -2 -13 2 -16 9 -2 7 -4 -2 -4 -19z"/>
<path d="M700 1865 c-19 -36 -8 -40 12 -4 9 16 14 29 9 29 -4 0 -14 -11 -21
-25z"/>
<path d="M821 1881 c-8 -5 -19 -8 -25 -7 -6 2 -8 1 -3 -1 4 -3 4 -9 1 -15 -5
-8 29 10 55 29 10 7 -16 2 -28 -6z"/>
<path d="M920 1880 c0 -5 5 -10 10 -10 6 0 10 5 10 10 0 6 -4 10 -10 10 -5 0
-10 -4 -10 -10z"/>
<path d="M834 1855 c-4 -8 -11 -12 -17 -8 -6 4 -1 -8 12 -26 17 -24 20 -35 12
-45 -8 -10 -6 -17 8 -30 10 -9 22 -16 27 -15 22 4 35 -2 28 -13 -4 -7 -3 -8 5
-4 15 10 -6 39 -23 33 -6 -3 -19 0 -29 5 -14 7 -16 12 -7 23 7 8 9 19 5 25 -3
5 -1 10 4 10 6 0 11 5 11 11 0 8 -4 8 -14 0 -11 -9 -13 -6 -13 14 0 25 0 25
23 10 28 -18 33 -9 7 11 -23 17 -32 17 -39 -1z"/>
<path d="M473 1842 c0 -12 5 -22 9 -22 11 0 10 12 -2 30 -7 12 -9 10 -7 -8z"/>
<path d="M636 1827 l-29 -28 21 -20 c12 -11 22 -15 22 -9 0 6 -7 13 -15 16
-20 8 -19 17 5 32 17 10 24 10 40 -1 11 -8 17 -17 13 -20 -3 -4 -1 -7 5 -7 18
0 15 20 -4 27 -9 3 -19 13 -22 22 -6 14 -11 12 -36 -12z"/>
<path d="M908 1853 c7 -3 16 -2 19 1 4 3 -2 6 -13 5 -11 0 -14 -3 -6 -6z"/>
<path d="M421 1834 c0 -11 3 -14 6 -6 3 7 2 16 -1 19 -3 4 -6 -2 -5 -13z"/>
<path d="M451 1834 c0 -11 3 -14 6 -6 3 7 2 16 -1 19 -3 4 -6 -2 -5 -13z"/>
<path d="M710 1830 c0 -5 5 -10 10 -10 6 0 10 5 10 10 0 6 -4 10 -10 10 -5 0
-10 -4 -10 -10z"/>
<path d="M786 1815 c-20 -15 -14 -35 12 -34 14 0 14 2 -2 8 -13 5 -16 10 -9
14 6 4 19 0 27 -9 9 -8 16 -10 16 -4 0 6 -7 13 -15 16 -8 4 -12 10 -9 15 7 12
2 11 -20 -6z"/>
<path d="M908 1823 c7 -3 16 -2 19 1 4 3 -2 6 -13 5 -11 0 -14 -3 -6 -6z"/>
<path d="M884 1808 c3 -10 0 -18 -6 -18 -6 0 -8 -3 -5 -6 4 -4 13 -1 22 6 10
8 15 9 15 1 0 -6 5 -11 11 -11 5 0 7 5 4 10 -3 6 -2 10 4 10 5 0 12 -5 14 -10
3 -6 4 -5 3 2 -2 7 -14 13 -27 13 -13 -1 -28 4 -32 10 -5 6 -7 3 -3 -7z"/>
<path d="M400 1800 c0 -5 5 -10 10 -10 6 0 10 5 10 10 0 6 -4 10 -10 10 -5 0
-10 -4 -10 -10z"/>
<path d="M433 1803 c4 -3 0 -17 -9 -31 -9 -13 -12 -22 -6 -18 5 3 12 -1 16 -9
3 -8 11 -15 18 -14 10 0 10 2 1 6 -7 2 -13 9 -13 14 0 6 6 7 13 3 9 -6 9 -4
-1 8 -7 8 -10 23 -6 32 4 10 1 16 -7 16 -7 0 -9 -3 -6 -7z"/>
<path d="M530 1800 c0 -5 5 -10 10 -10 6 0 10 5 10 10 0 6 -4 10 -10 10 -5 0
-10 -4 -10 -10z"/>
<path d="M650 1800 c0 -5 9 -14 20 -20 11 -6 20 -18 20 -27 0 -14 2 -14 15 3
8 10 15 15 15 11 0 -4 8 -3 19 2 16 9 19 7 19 -15 0 -19 -3 -22 -14 -13 -21
17 -17 2 5 -20 18 -18 19 -18 17 19 -1 44 -9 56 -28 44 -7 -5 -19 -9 -27 -11
-18 -2 -53 22 -44 30 3 4 1 7 -5 7 -7 0 -12 -4 -12 -10z"/>
<path d="M580 1785 c-7 -9 -8 -15 -2 -15 5 0 12 7 16 15 3 8 4 15 2 15 -2 0
-9 -7 -16 -15z"/>
<path d="M351 1763 c13 -16 25 -30 27 -32 1 -2 4 -2 7 0 5 6 -40 59 -50 59 -5
0 2 -12 16 -27z"/>
<path d="M455 1780 c3 -5 8 -10 11 -10 2 0 4 5 4 10 0 6 -5 10 -11 10 -5 0 -7
-4 -4 -10z"/>
<path d="M388 1773 c7 -3 16 -2 19 1 4 3 -2 6 -13 5 -11 0 -14 -3 -6 -6z"/>
<path d="M476 1765 c-9 -26 -7 -32 5 -12 6 10 9 21 6 23 -2 3 -7 -2 -11 -11z"/>
<path d="M597 1767 c-3 -8 -2 -20 3 -26 5 -9 8 -4 8 13 0 29 -3 32 -11 13z"/>
<path d="M496 1753 c-4 -13 -12 -23 -17 -23 -5 0 -9 -5 -9 -12 0 -7 9 -3 21 9
12 11 19 27 17 34 -3 9 -7 6 -12 -8z"/>
<path d="M623 1742 c0 -21 3 -28 9 -20 4 7 8 9 8 4 0 -5 7 -3 15 4 8 7 15 20
15 29 -1 11 -4 9 -14 -7 l-12 -23 -11 22 c-9 22 -10 21 -10 -9z"/>
<path d="M783 1738 c0 -18 2 -27 5 -20 2 6 7 10 12 7 4 -3 13 2 20 10 9 10 9
15 1 15 -6 0 -11 -6 -11 -12 -1 -7 -7 -2 -14 10 -12 23 -13 23 -13 -10z"/>
<path d="M890 1765 c0 -8 29 -12 39 -5 9 5 4 8 -13 8 -14 0 -26 -2 -26 -3z"/>
<path d="M941 1753 c-7 -8 -11 -16 -8 -19 2 -2 10 2 17 11 17 20 9 27 -9 8z"/>
<path d="M554 1749 c-4 -8 -3 -9 4 -5 11 7 17 -6 13 -28 -1 -5 6 -17 15 -27
13 -15 20 -16 31 -8 10 9 18 8 31 -3 25 -22 46 -33 39 -21 -4 6 0 13 8 17 8 3
15 11 14 18 0 10 -2 10 -6 1 -2 -7 -9 -13 -14 -13 -6 0 -7 5 -3 12 4 7 3 8 -4
4 -7 -4 -12 -2 -12 3 0 6 -5 11 -12 11 -6 0 -3 -9 7 -20 22 -24 9 -27 -17 -4
-14 13 -21 14 -32 5 -12 -10 -16 -9 -24 6 -5 10 -8 23 -5 29 6 17 -23 38 -33
23z"/>
<path d="M415 1726 c11 -9 25 -20 32 -26 16 -13 26 -13 18 0 -3 6 -21 17 -38
26 -28 13 -29 13 -12 0z"/>
<path d="M340 1720 c0 -5 5 -10 10 -10 6 0 10 5 10 10 0 6 -4 10 -10 10 -5 0
-10 -4 -10 -10z"/>
<path d="M675 1719 c6 -9 45 -8 45 2 0 4 -11 7 -25 7 -13 0 -22 -4 -20 -9z"/>
<path d="M803 1708 c-18 -11 -33 -23 -33 -27 0 -9 56 -51 67 -51 4 0 0 5 -10
11 -12 7 -16 18 -13 32 3 12 3 16 0 10 -6 -14 -34 -18 -34 -5 0 4 17 17 38 29
20 12 33 22 27 22 -5 0 -25 -10 -42 -21z"/>
<path d="M730 1711 c0 -5 5 -13 10 -16 6 -3 10 -2 10 4 0 5 -4 13 -10 16 -5 3
-10 2 -10 -4z"/>
<path d="M875 1710 c3 -5 8 -10 11 -10 2 0 4 5 4 10 0 6 -5 10 -11 10 -5 0 -7
-4 -4 -10z"/>
<path d="M911 1701 c-25 -19 -21 -42 7 -40 15 1 15 2 0 6 -10 2 -18 9 -18 15
0 5 8 7 17 4 10 -4 14 -4 10 0 -4 4 -2 13 4 21 16 18 9 16 -20 -6z"/>
<path d="M495 1700 c3 -5 14 -10 23 -10 15 0 15 2 2 10 -20 13 -33 13 -25 0z"/>
<path d="M839 1708 c-1 -2 -3 -16 -5 -33 -2 -20 0 -25 5 -16 5 8 7 21 4 29 -5
12 -2 12 18 2 22 -12 23 -12 10 3 -12 15 -29 22 -32 15z"/>
<path d="M433 1674 c0 -17 2 -22 7 -13 5 6 6 18 3 26 -8 19 -10 16 -10 -13z"/>
<path d="M410 1679 c0 -7 -9 -9 -22 -6 -23 6 -23 6 1 -12 16 -12 20 -21 12
-25 -6 -4 -11 -13 -11 -19 0 -7 6 -4 14 5 7 10 17 14 22 10 4 -4 3 0 -4 9 -7
9 -10 24 -6 33 3 9 3 16 0 16 -3 0 -6 -5 -6 -11z"/>
<path d="M559 1683 c-1 -5 -3 -20 -4 -35 -4 -26 -3 -26 16 -7 23 23 25 37 3
18 -15 -12 -16 -11 -10 9 4 12 5 22 2 22 -3 0 -7 -3 -7 -7z"/>
<path d="M712 1668 c-7 -13 -18 -32 -26 -43 -10 -13 -12 -25 -6 -35 7 -12 9
-11 8 5 -1 11 9 35 22 53 13 17 21 34 18 37 -2 3 -10 -5 -16 -17z"/>
<path d="M740 1665 c-6 -8 -10 -19 -8 -26 2 -6 9 0 16 15 13 29 10 33 -8 11z"/>
<path d="M630 1663 c5 -2 10 -9 10 -14 0 -6 -4 -7 -10 -4 -5 3 -10 1 -10 -5 0
-7 6 -10 13 -7 16 5 16 30 -1 33 -7 1 -8 0 -2 -3z"/>
<path d="M857 1663 c-4 -3 -7 -11 -7 -17 0 -6 5 -5 12 2 6 6 9 14 7 17 -3 3
-9 2 -12 -2z"/>
<path d="M588 1639 c-21 -23 -24 -36 -4 -20 11 9 14 6 14 -14 0 -25 -1 -25
-24 -10 -13 8 -24 12 -24 8 0 -12 41 -35 48 -28 6 5 13 87 8 84 0 0 -9 -9 -18
-20z"/>
<path d="M755 1643 c-3 -10 -1 -19 4 -21 6 -2 8 -8 5 -13 -3 -6 -16 -3 -31 6
-14 10 -22 12 -19 6 4 -6 2 -11 -3 -11 -6 0 -11 -5 -11 -12 0 -9 3 -9 12 0 7
7 17 8 28 2 21 -11 55 21 47 42 -3 8 -6 6 -6 -5 -1 -10 -5 -16 -11 -12 -5 3
-7 12 -3 20 3 8 3 15 0 15 -3 0 -8 -8 -12 -17z"/>
<path d="M880 1652 c0 -6 -12 -18 -27 -26 -17 -9 -22 -15 -12 -16 19 0 55 37
46 47 -4 3 -7 1 -7 -5z"/>
<path d="M500 1640 c0 -5 5 -10 11 -10 5 0 7 5 4 10 -3 6 -8 10 -11 10 -2 0
-4 -4 -4 -10z"/>
<path d="M656 1633 c-4 -13 -12 -22 -18 -20 -6 1 -12 -4 -13 -11 -2 -7 -1 -8
2 -2 2 5 8 8 13 5 11 -7 33 22 28 37 -3 8 -8 4 -12 -9z"/>
<path d="M423 1614 c-21 -15 -22 -44 -1 -44 6 0 5 6 -2 15 -15 18 1 20 19 3
11 -10 13 -10 7 0 -4 6 -3 12 3 12 5 0 12 -6 14 -12 4 -10 6 -10 6 0 1 7 -6
15 -14 18 -8 4 -12 10 -9 15 7 12 3 11 -23 -7z"/>
<path d="M518 1613 c7 -3 16 -2 19 1 4 3 -2 6 -13 5 -11 0 -14 -3 -6 -6z"/>
<path d="M536 1571 c18 -11 34 -25 37 -33 2 -7 7 -10 11 -7 9 9 -44 59 -63 59
-9 0 -3 -8 15 -19z"/>
<path d="M660 1575 c14 -17 0 -21 -17 -4 -8 8 -17 7 -34 -5 -13 -9 -19 -16
-13 -16 5 0 15 5 22 12 8 8 15 8 25 -1 8 -6 22 -9 30 -5 14 5 14 8 2 20 -18
19 -31 18 -15 -1z"/>
<path d="M710 1580 c-8 -5 -10 -10 -5 -10 6 0 17 5 25 10 8 5 11 10 5 10 -5 0
-17 -5 -25 -10z"/>
<path d="M833 1583 c4 -3 -1 -12 -11 -20 -15 -13 -15 -13 6 -3 19 9 23 30 5
30 -4 0 -3 -3 0 -7z"/>
<path d="M750 1571 c0 -7 -4 -9 -10 -6 -5 3 -15 -5 -21 -19 -7 -14 -16 -23
-22 -19 -6 4 -7 1 -2 -7 6 -10 11 -9 22 5 7 11 13 23 13 28 0 4 4 6 9 2 11 -6
26 13 17 22 -3 4 -6 1 -6 -6z"/>
<path d="M440 1560 c0 -5 5 -10 10 -10 6 0 10 5 10 10 0 6 -4 10 -10 10 -5 0
-10 -4 -10 -10z"/>
<path d="M500 1560 c0 -5 5 -10 10 -10 6 0 10 5 10 10 0 6 -4 10 -10 10 -5 0
-10 -4 -10 -10z"/>
<path d="M746 1534 c-11 -8 -16 -14 -10 -14 13 0 39 18 34 24 -3 2 -14 -2 -24
-10z"/>
<path d="M546 1522 c-3 -4 4 -9 15 -9 23 -2 25 3 4 10 -8 4 -16 3 -19 -1z"/>
<path d="M857 966 c-113 -42 -179 -145 -172 -269 4 -73 37 -138 100 -195 104
-94 228 -157 365 -186 82 -18 255 -14 335 8 169 45 358 180 405 288 18 42 21
65 18 118 -11 146 -116 248 -258 249 -67 1 -119 -21 -193 -82 -112 -91 -233
-84 -343 18 -61 56 -179 80 -257 51z"/>
</g>
</svg>
